%TF.GenerationSoftware,KiCad,Pcbnew,5.1.9*%
%TF.CreationDate,2021-02-13T19:17:24+03:00*%
%TF.ProjectId,gw1ns2c-board,6777316e-7332-4632-9d62-6f6172642e6b,rev?*%
%TF.SameCoordinates,Original*%
%TF.FileFunction,Soldermask,Bot*%
%TF.FilePolarity,Negative*%
%FSLAX46Y46*%
G04 Gerber Fmt 4.6, Leading zero omitted, Abs format (unit mm)*
G04 Created by KiCad (PCBNEW 5.1.9) date 2021-02-13 19:17:24*
%MOMM*%
%LPD*%
G01*
G04 APERTURE LIST*
%ADD10C,1.100000*%
%ADD11O,1.800000X1.800000*%
%ADD12O,1.300000X2.000000*%
%ADD13C,1.550000*%
G04 APERTURE END LIST*
%TO.C,R13*%
G36*
G01*
X36697000Y-31415000D02*
X36697000Y-30815000D01*
G75*
G02*
X36922000Y-30590000I225000J0D01*
G01*
X37372000Y-30590000D01*
G75*
G02*
X37597000Y-30815000I0J-225000D01*
G01*
X37597000Y-31415000D01*
G75*
G02*
X37372000Y-31640000I-225000J0D01*
G01*
X36922000Y-31640000D01*
G75*
G02*
X36697000Y-31415000I0J225000D01*
G01*
G37*
G36*
G01*
X35047000Y-31415000D02*
X35047000Y-30815000D01*
G75*
G02*
X35272000Y-30590000I225000J0D01*
G01*
X35722000Y-30590000D01*
G75*
G02*
X35947000Y-30815000I0J-225000D01*
G01*
X35947000Y-31415000D01*
G75*
G02*
X35722000Y-31640000I-225000J0D01*
G01*
X35272000Y-31640000D01*
G75*
G02*
X35047000Y-31415000I0J225000D01*
G01*
G37*
%TD*%
%TO.C,C12*%
G36*
G01*
X31517000Y-55986000D02*
X30967000Y-55986000D01*
G75*
G02*
X30717000Y-55736000I0J250000D01*
G01*
X30717000Y-55236000D01*
G75*
G02*
X30967000Y-54986000I250000J0D01*
G01*
X31517000Y-54986000D01*
G75*
G02*
X31767000Y-55236000I0J-250000D01*
G01*
X31767000Y-55736000D01*
G75*
G02*
X31517000Y-55986000I-250000J0D01*
G01*
G37*
G36*
G01*
X31517000Y-57536000D02*
X30967000Y-57536000D01*
G75*
G02*
X30717000Y-57286000I0J250000D01*
G01*
X30717000Y-56786000D01*
G75*
G02*
X30967000Y-56536000I250000J0D01*
G01*
X31517000Y-56536000D01*
G75*
G02*
X31767000Y-56786000I0J-250000D01*
G01*
X31767000Y-57286000D01*
G75*
G02*
X31517000Y-57536000I-250000J0D01*
G01*
G37*
%TD*%
%TO.C,C11*%
G36*
G01*
X36936000Y-51922000D02*
X36936000Y-52472000D01*
G75*
G02*
X36686000Y-52722000I-250000J0D01*
G01*
X36186000Y-52722000D01*
G75*
G02*
X35936000Y-52472000I0J250000D01*
G01*
X35936000Y-51922000D01*
G75*
G02*
X36186000Y-51672000I250000J0D01*
G01*
X36686000Y-51672000D01*
G75*
G02*
X36936000Y-51922000I0J-250000D01*
G01*
G37*
G36*
G01*
X38486000Y-51922000D02*
X38486000Y-52472000D01*
G75*
G02*
X38236000Y-52722000I-250000J0D01*
G01*
X37736000Y-52722000D01*
G75*
G02*
X37486000Y-52472000I0J250000D01*
G01*
X37486000Y-51922000D01*
G75*
G02*
X37736000Y-51672000I250000J0D01*
G01*
X38236000Y-51672000D01*
G75*
G02*
X38486000Y-51922000I0J-250000D01*
G01*
G37*
%TD*%
D10*
%TO.C,TP1*%
X32512000Y-35864800D03*
%TD*%
D11*
%TO.C,J3*%
X43180000Y-73660000D03*
X43180000Y-71120000D03*
X43180000Y-68580000D03*
X43180000Y-66040000D03*
X43180000Y-63500000D03*
X43180000Y-60960000D03*
X43180000Y-58420000D03*
X43180000Y-55880000D03*
X43180000Y-53340000D03*
X43180000Y-50800000D03*
X43180000Y-48260000D03*
X43180000Y-45720000D03*
X43180000Y-43180000D03*
X43180000Y-40640000D03*
X43180000Y-38100000D03*
X43180000Y-35560000D03*
X43180000Y-33020000D03*
X43180000Y-30480000D03*
X43180000Y-27940000D03*
G36*
G01*
X44080000Y-24550000D02*
X44080000Y-26250000D01*
G75*
G02*
X44030000Y-26300000I-50000J0D01*
G01*
X42330000Y-26300000D01*
G75*
G02*
X42280000Y-26250000I0J50000D01*
G01*
X42280000Y-24550000D01*
G75*
G02*
X42330000Y-24500000I50000J0D01*
G01*
X44030000Y-24500000D01*
G75*
G02*
X44080000Y-24550000I0J-50000D01*
G01*
G37*
%TD*%
%TO.C,J2*%
X25400000Y-73660000D03*
X25400000Y-71120000D03*
X25400000Y-68580000D03*
X25400000Y-66040000D03*
X25400000Y-63500000D03*
X25400000Y-60960000D03*
X25400000Y-58420000D03*
X25400000Y-55880000D03*
X25400000Y-53340000D03*
X25400000Y-50800000D03*
X25400000Y-48260000D03*
X25400000Y-45720000D03*
X25400000Y-43180000D03*
X25400000Y-40640000D03*
X25400000Y-38100000D03*
X25400000Y-35560000D03*
X25400000Y-33020000D03*
X25400000Y-30480000D03*
X25400000Y-27940000D03*
G36*
G01*
X26300000Y-24550000D02*
X26300000Y-26250000D01*
G75*
G02*
X26250000Y-26300000I-50000J0D01*
G01*
X24550000Y-26300000D01*
G75*
G02*
X24500000Y-26250000I0J50000D01*
G01*
X24500000Y-24550000D01*
G75*
G02*
X24550000Y-24500000I50000J0D01*
G01*
X26250000Y-24500000D01*
G75*
G02*
X26300000Y-24550000I0J-50000D01*
G01*
G37*
%TD*%
D12*
%TO.C,J1*%
X30790000Y-25432500D03*
X37790000Y-25432500D03*
D13*
X31790000Y-28132500D03*
X36790000Y-28132500D03*
%TD*%
%TO.C,C7*%
G36*
G01*
X29925600Y-42651000D02*
X29925600Y-43201000D01*
G75*
G02*
X29675600Y-43451000I-250000J0D01*
G01*
X29175600Y-43451000D01*
G75*
G02*
X28925600Y-43201000I0J250000D01*
G01*
X28925600Y-42651000D01*
G75*
G02*
X29175600Y-42401000I250000J0D01*
G01*
X29675600Y-42401000D01*
G75*
G02*
X29925600Y-42651000I0J-250000D01*
G01*
G37*
G36*
G01*
X31475600Y-42651000D02*
X31475600Y-43201000D01*
G75*
G02*
X31225600Y-43451000I-250000J0D01*
G01*
X30725600Y-43451000D01*
G75*
G02*
X30475600Y-43201000I0J250000D01*
G01*
X30475600Y-42651000D01*
G75*
G02*
X30725600Y-42401000I250000J0D01*
G01*
X31225600Y-42401000D01*
G75*
G02*
X31475600Y-42651000I0J-250000D01*
G01*
G37*
%TD*%
%TO.C,C4*%
G36*
G01*
X36444600Y-56621000D02*
X35894600Y-56621000D01*
G75*
G02*
X35644600Y-56371000I0J250000D01*
G01*
X35644600Y-55871000D01*
G75*
G02*
X35894600Y-55621000I250000J0D01*
G01*
X36444600Y-55621000D01*
G75*
G02*
X36694600Y-55871000I0J-250000D01*
G01*
X36694600Y-56371000D01*
G75*
G02*
X36444600Y-56621000I-250000J0D01*
G01*
G37*
G36*
G01*
X36444600Y-58171000D02*
X35894600Y-58171000D01*
G75*
G02*
X35644600Y-57921000I0J250000D01*
G01*
X35644600Y-57421000D01*
G75*
G02*
X35894600Y-57171000I250000J0D01*
G01*
X36444600Y-57171000D01*
G75*
G02*
X36694600Y-57421000I0J-250000D01*
G01*
X36694600Y-57921000D01*
G75*
G02*
X36444600Y-58171000I-250000J0D01*
G01*
G37*
%TD*%
%TO.C,C3*%
G36*
G01*
X31373400Y-48493000D02*
X31373400Y-49043000D01*
G75*
G02*
X31123400Y-49293000I-250000J0D01*
G01*
X30623400Y-49293000D01*
G75*
G02*
X30373400Y-49043000I0J250000D01*
G01*
X30373400Y-48493000D01*
G75*
G02*
X30623400Y-48243000I250000J0D01*
G01*
X31123400Y-48243000D01*
G75*
G02*
X31373400Y-48493000I0J-250000D01*
G01*
G37*
G36*
G01*
X32923400Y-48493000D02*
X32923400Y-49043000D01*
G75*
G02*
X32673400Y-49293000I-250000J0D01*
G01*
X32173400Y-49293000D01*
G75*
G02*
X31923400Y-49043000I0J250000D01*
G01*
X31923400Y-48493000D01*
G75*
G02*
X32173400Y-48243000I250000J0D01*
G01*
X32673400Y-48243000D01*
G75*
G02*
X32923400Y-48493000I0J-250000D01*
G01*
G37*
%TD*%
%TO.C,C2*%
G36*
G01*
X37977400Y-56316200D02*
X37977400Y-56866200D01*
G75*
G02*
X37727400Y-57116200I-250000J0D01*
G01*
X37227400Y-57116200D01*
G75*
G02*
X36977400Y-56866200I0J250000D01*
G01*
X36977400Y-56316200D01*
G75*
G02*
X37227400Y-56066200I250000J0D01*
G01*
X37727400Y-56066200D01*
G75*
G02*
X37977400Y-56316200I0J-250000D01*
G01*
G37*
G36*
G01*
X39527400Y-56316200D02*
X39527400Y-56866200D01*
G75*
G02*
X39277400Y-57116200I-250000J0D01*
G01*
X38777400Y-57116200D01*
G75*
G02*
X38527400Y-56866200I0J250000D01*
G01*
X38527400Y-56316200D01*
G75*
G02*
X38777400Y-56066200I250000J0D01*
G01*
X39277400Y-56066200D01*
G75*
G02*
X39527400Y-56316200I0J-250000D01*
G01*
G37*
%TD*%
%TO.C,C1*%
G36*
G01*
X30408200Y-52506200D02*
X30408200Y-53056200D01*
G75*
G02*
X30158200Y-53306200I-250000J0D01*
G01*
X29658200Y-53306200D01*
G75*
G02*
X29408200Y-53056200I0J250000D01*
G01*
X29408200Y-52506200D01*
G75*
G02*
X29658200Y-52256200I250000J0D01*
G01*
X30158200Y-52256200D01*
G75*
G02*
X30408200Y-52506200I0J-250000D01*
G01*
G37*
G36*
G01*
X31958200Y-52506200D02*
X31958200Y-53056200D01*
G75*
G02*
X31708200Y-53306200I-250000J0D01*
G01*
X31208200Y-53306200D01*
G75*
G02*
X30958200Y-53056200I0J250000D01*
G01*
X30958200Y-52506200D01*
G75*
G02*
X31208200Y-52256200I250000J0D01*
G01*
X31708200Y-52256200D01*
G75*
G02*
X31958200Y-52506200I0J-250000D01*
G01*
G37*
%TD*%
M02*
