M48
; DRILL file {KiCad 5.1.9} date Sat Feb 13 19:12:14 2021
; FORMAT={-:-/ absolute / metric / decimal}
; #@! TF.CreationDate,2021-02-13T19:12:14+03:00
; #@! TF.GenerationSoftware,Kicad,Pcbnew,5.1.9
FMAT,2
METRIC
T1C0.300
T2C0.600
T3C0.850
T4C1.000
%
G90
G05
T1
X28.054Y-28.715
X28.296Y-41.631
X28.638Y-33.782
X28.956Y-50.355
X29.464Y-38.291
X29.464Y-48.158
X30.543Y-29.781
X30.543Y-38.291
X31.242Y-57.81
X31.442Y-51.914
X31.648Y-49.581
X31.806Y-42.947
X32.461Y-55.575
X33.071Y-50.597
X33.084Y-69.532
X33.325Y-35.865
X33.477Y-49.886
X33.972Y-32.639
X34.087Y-42.672
X34.29Y-69.532
X34.849Y-33.477
X34.9Y-42.672
X35.496Y-69.532
X35.585Y-29.413
X35.712Y-42.672
X35.763Y-74.016
X35.916Y-32.512
X36.119Y-54.153
X36.525Y-42.672
X37.084Y-57.81
X37.236Y-32.512
X37.236Y-35.916
X37.44Y-47.777
X37.973Y-51.308
X38.252Y-57.353
X39.688Y-40.386
X39.751Y-30.734
X39.751Y-36.309
X39.814Y-26.987
T3
X31.79Y-28.133
X36.79Y-28.133
T4
X25.4Y-25.4
X25.4Y-27.94
X25.4Y-30.48
X25.4Y-33.02
X25.4Y-35.56
X25.4Y-38.1
X25.4Y-40.64
X25.4Y-43.18
X25.4Y-45.72
X25.4Y-48.26
X25.4Y-50.8
X25.4Y-53.34
X25.4Y-55.88
X25.4Y-58.42
X25.4Y-60.96
X25.4Y-63.5
X25.4Y-66.04
X25.4Y-68.58
X25.4Y-71.12
X25.4Y-73.66
X43.18Y-25.4
X43.18Y-27.94
X43.18Y-30.48
X43.18Y-33.02
X43.18Y-35.56
X43.18Y-38.1
X43.18Y-40.64
X43.18Y-43.18
X43.18Y-45.72
X43.18Y-48.26
X43.18Y-50.8
X43.18Y-53.34
X43.18Y-55.88
X43.18Y-58.42
X43.18Y-60.96
X43.18Y-63.5
X43.18Y-66.04
X43.18Y-68.58
X43.18Y-71.12
X43.18Y-73.66
T2
X30.79Y-25.782G85X30.79Y-25.082
G05
X37.79Y-25.082G85X37.79Y-25.782
G05
T0
M30
