%TF.GenerationSoftware,KiCad,Pcbnew,5.1.9*%
%TF.CreationDate,2021-02-13T19:17:24+03:00*%
%TF.ProjectId,gw1ns2c-board,6777316e-7332-4632-9d62-6f6172642e6b,rev?*%
%TF.SameCoordinates,Original*%
%TF.FileFunction,Legend,Top*%
%TF.FilePolarity,Positive*%
%FSLAX46Y46*%
G04 Gerber Fmt 4.6, Leading zero omitted, Abs format (unit mm)*
G04 Created by KiCad (PCBNEW 5.1.9) date 2021-02-13 19:17:24*
%MOMM*%
%LPD*%
G01*
G04 APERTURE LIST*
%ADD10C,0.150000*%
%ADD11C,0.120000*%
G04 APERTURE END LIST*
D10*
X26612904Y-36550476D02*
X26612904Y-36055238D01*
X26917666Y-36321904D01*
X26917666Y-36207619D01*
X26955761Y-36131428D01*
X26993857Y-36093333D01*
X27070047Y-36055238D01*
X27260523Y-36055238D01*
X27336714Y-36093333D01*
X27374809Y-36131428D01*
X27412904Y-36207619D01*
X27412904Y-36436190D01*
X27374809Y-36512380D01*
X27336714Y-36550476D01*
X26612904Y-35826666D02*
X27412904Y-35560000D01*
X26612904Y-35293333D01*
X26612904Y-35102857D02*
X26612904Y-34607619D01*
X26917666Y-34874285D01*
X26917666Y-34760000D01*
X26955761Y-34683809D01*
X26993857Y-34645714D01*
X27070047Y-34607619D01*
X27260523Y-34607619D01*
X27336714Y-34645714D01*
X27374809Y-34683809D01*
X27412904Y-34760000D01*
X27412904Y-34988571D01*
X27374809Y-35064761D01*
X27336714Y-35102857D01*
X27412904Y-38252380D02*
X27412904Y-38709523D01*
X27412904Y-38480952D02*
X26612904Y-38480952D01*
X26727190Y-38557142D01*
X26803380Y-38633333D01*
X26841476Y-38709523D01*
X26879571Y-37566666D02*
X27412904Y-37566666D01*
X26574809Y-37757142D02*
X27146238Y-37947619D01*
X27146238Y-37452380D01*
X27412904Y-40792380D02*
X27412904Y-41249523D01*
X27412904Y-41020952D02*
X26612904Y-41020952D01*
X26727190Y-41097142D01*
X26803380Y-41173333D01*
X26841476Y-41249523D01*
X26612904Y-40068571D02*
X26612904Y-40449523D01*
X26993857Y-40487619D01*
X26955761Y-40449523D01*
X26917666Y-40373333D01*
X26917666Y-40182857D01*
X26955761Y-40106666D01*
X26993857Y-40068571D01*
X27070047Y-40030476D01*
X27260523Y-40030476D01*
X27336714Y-40068571D01*
X27374809Y-40106666D01*
X27412904Y-40182857D01*
X27412904Y-40373333D01*
X27374809Y-40449523D01*
X27336714Y-40487619D01*
X27412904Y-43332380D02*
X27412904Y-43789523D01*
X27412904Y-43560952D02*
X26612904Y-43560952D01*
X26727190Y-43637142D01*
X26803380Y-43713333D01*
X26841476Y-43789523D01*
X26612904Y-42646666D02*
X26612904Y-42799047D01*
X26651000Y-42875238D01*
X26689095Y-42913333D01*
X26803380Y-42989523D01*
X26955761Y-43027619D01*
X27260523Y-43027619D01*
X27336714Y-42989523D01*
X27374809Y-42951428D01*
X27412904Y-42875238D01*
X27412904Y-42722857D01*
X27374809Y-42646666D01*
X27336714Y-42608571D01*
X27260523Y-42570476D01*
X27070047Y-42570476D01*
X26993857Y-42608571D01*
X26955761Y-42646666D01*
X26917666Y-42722857D01*
X26917666Y-42875238D01*
X26955761Y-42951428D01*
X26993857Y-42989523D01*
X27070047Y-43027619D01*
X27412904Y-45872380D02*
X27412904Y-46329523D01*
X27412904Y-46100952D02*
X26612904Y-46100952D01*
X26727190Y-46177142D01*
X26803380Y-46253333D01*
X26841476Y-46329523D01*
X26612904Y-45605714D02*
X26612904Y-45072380D01*
X27412904Y-45415238D01*
X27412904Y-48412380D02*
X27412904Y-48869523D01*
X27412904Y-48640952D02*
X26612904Y-48640952D01*
X26727190Y-48717142D01*
X26803380Y-48793333D01*
X26841476Y-48869523D01*
X26955761Y-47955238D02*
X26917666Y-48031428D01*
X26879571Y-48069523D01*
X26803380Y-48107619D01*
X26765285Y-48107619D01*
X26689095Y-48069523D01*
X26651000Y-48031428D01*
X26612904Y-47955238D01*
X26612904Y-47802857D01*
X26651000Y-47726666D01*
X26689095Y-47688571D01*
X26765285Y-47650476D01*
X26803380Y-47650476D01*
X26879571Y-47688571D01*
X26917666Y-47726666D01*
X26955761Y-47802857D01*
X26955761Y-47955238D01*
X26993857Y-48031428D01*
X27031952Y-48069523D01*
X27108142Y-48107619D01*
X27260523Y-48107619D01*
X27336714Y-48069523D01*
X27374809Y-48031428D01*
X27412904Y-47955238D01*
X27412904Y-47802857D01*
X27374809Y-47726666D01*
X27336714Y-47688571D01*
X27260523Y-47650476D01*
X27108142Y-47650476D01*
X27031952Y-47688571D01*
X26993857Y-47726666D01*
X26955761Y-47802857D01*
X27412904Y-50952380D02*
X27412904Y-51409523D01*
X27412904Y-51180952D02*
X26612904Y-51180952D01*
X26727190Y-51257142D01*
X26803380Y-51333333D01*
X26841476Y-51409523D01*
X27412904Y-50571428D02*
X27412904Y-50419047D01*
X27374809Y-50342857D01*
X27336714Y-50304761D01*
X27222428Y-50228571D01*
X27070047Y-50190476D01*
X26765285Y-50190476D01*
X26689095Y-50228571D01*
X26651000Y-50266666D01*
X26612904Y-50342857D01*
X26612904Y-50495238D01*
X26651000Y-50571428D01*
X26689095Y-50609523D01*
X26765285Y-50647619D01*
X26955761Y-50647619D01*
X27031952Y-50609523D01*
X27070047Y-50571428D01*
X27108142Y-50495238D01*
X27108142Y-50342857D01*
X27070047Y-50266666D01*
X27031952Y-50228571D01*
X26955761Y-50190476D01*
X26689095Y-53949523D02*
X26651000Y-53911428D01*
X26612904Y-53835238D01*
X26612904Y-53644761D01*
X26651000Y-53568571D01*
X26689095Y-53530476D01*
X26765285Y-53492380D01*
X26841476Y-53492380D01*
X26955761Y-53530476D01*
X27412904Y-53987619D01*
X27412904Y-53492380D01*
X26612904Y-52997142D02*
X26612904Y-52920952D01*
X26651000Y-52844761D01*
X26689095Y-52806666D01*
X26765285Y-52768571D01*
X26917666Y-52730476D01*
X27108142Y-52730476D01*
X27260523Y-52768571D01*
X27336714Y-52806666D01*
X27374809Y-52844761D01*
X27412904Y-52920952D01*
X27412904Y-52997142D01*
X27374809Y-53073333D01*
X27336714Y-53111428D01*
X27260523Y-53149523D01*
X27108142Y-53187619D01*
X26917666Y-53187619D01*
X26765285Y-53149523D01*
X26689095Y-53111428D01*
X26651000Y-53073333D01*
X26612904Y-52997142D01*
X26689095Y-56489523D02*
X26651000Y-56451428D01*
X26612904Y-56375238D01*
X26612904Y-56184761D01*
X26651000Y-56108571D01*
X26689095Y-56070476D01*
X26765285Y-56032380D01*
X26841476Y-56032380D01*
X26955761Y-56070476D01*
X27412904Y-56527619D01*
X27412904Y-56032380D01*
X27412904Y-55270476D02*
X27412904Y-55727619D01*
X27412904Y-55499047D02*
X26612904Y-55499047D01*
X26727190Y-55575238D01*
X26803380Y-55651428D01*
X26841476Y-55727619D01*
X26689095Y-59029523D02*
X26651000Y-58991428D01*
X26612904Y-58915238D01*
X26612904Y-58724761D01*
X26651000Y-58648571D01*
X26689095Y-58610476D01*
X26765285Y-58572380D01*
X26841476Y-58572380D01*
X26955761Y-58610476D01*
X27412904Y-59067619D01*
X27412904Y-58572380D01*
X26689095Y-58267619D02*
X26651000Y-58229523D01*
X26612904Y-58153333D01*
X26612904Y-57962857D01*
X26651000Y-57886666D01*
X26689095Y-57848571D01*
X26765285Y-57810476D01*
X26841476Y-57810476D01*
X26955761Y-57848571D01*
X27412904Y-58305714D01*
X27412904Y-57810476D01*
X26689095Y-61569523D02*
X26651000Y-61531428D01*
X26612904Y-61455238D01*
X26612904Y-61264761D01*
X26651000Y-61188571D01*
X26689095Y-61150476D01*
X26765285Y-61112380D01*
X26841476Y-61112380D01*
X26955761Y-61150476D01*
X27412904Y-61607619D01*
X27412904Y-61112380D01*
X26612904Y-60845714D02*
X26612904Y-60350476D01*
X26917666Y-60617142D01*
X26917666Y-60502857D01*
X26955761Y-60426666D01*
X26993857Y-60388571D01*
X27070047Y-60350476D01*
X27260523Y-60350476D01*
X27336714Y-60388571D01*
X27374809Y-60426666D01*
X27412904Y-60502857D01*
X27412904Y-60731428D01*
X27374809Y-60807619D01*
X27336714Y-60845714D01*
X26689095Y-64109523D02*
X26651000Y-64071428D01*
X26612904Y-63995238D01*
X26612904Y-63804761D01*
X26651000Y-63728571D01*
X26689095Y-63690476D01*
X26765285Y-63652380D01*
X26841476Y-63652380D01*
X26955761Y-63690476D01*
X27412904Y-64147619D01*
X27412904Y-63652380D01*
X26879571Y-62966666D02*
X27412904Y-62966666D01*
X26574809Y-63157142D02*
X27146238Y-63347619D01*
X27146238Y-62852380D01*
X26689095Y-66649523D02*
X26651000Y-66611428D01*
X26612904Y-66535238D01*
X26612904Y-66344761D01*
X26651000Y-66268571D01*
X26689095Y-66230476D01*
X26765285Y-66192380D01*
X26841476Y-66192380D01*
X26955761Y-66230476D01*
X27412904Y-66687619D01*
X27412904Y-66192380D01*
X26612904Y-65925714D02*
X26612904Y-65392380D01*
X27412904Y-65735238D01*
X26689095Y-69189523D02*
X26651000Y-69151428D01*
X26612904Y-69075238D01*
X26612904Y-68884761D01*
X26651000Y-68808571D01*
X26689095Y-68770476D01*
X26765285Y-68732380D01*
X26841476Y-68732380D01*
X26955761Y-68770476D01*
X27412904Y-69227619D01*
X27412904Y-68732380D01*
X26955761Y-68275238D02*
X26917666Y-68351428D01*
X26879571Y-68389523D01*
X26803380Y-68427619D01*
X26765285Y-68427619D01*
X26689095Y-68389523D01*
X26651000Y-68351428D01*
X26612904Y-68275238D01*
X26612904Y-68122857D01*
X26651000Y-68046666D01*
X26689095Y-68008571D01*
X26765285Y-67970476D01*
X26803380Y-67970476D01*
X26879571Y-68008571D01*
X26917666Y-68046666D01*
X26955761Y-68122857D01*
X26955761Y-68275238D01*
X26993857Y-68351428D01*
X27031952Y-68389523D01*
X27108142Y-68427619D01*
X27260523Y-68427619D01*
X27336714Y-68389523D01*
X27374809Y-68351428D01*
X27412904Y-68275238D01*
X27412904Y-68122857D01*
X27374809Y-68046666D01*
X27336714Y-68008571D01*
X27260523Y-67970476D01*
X27108142Y-67970476D01*
X27031952Y-68008571D01*
X26993857Y-68046666D01*
X26955761Y-68122857D01*
X26689095Y-71729523D02*
X26651000Y-71691428D01*
X26612904Y-71615238D01*
X26612904Y-71424761D01*
X26651000Y-71348571D01*
X26689095Y-71310476D01*
X26765285Y-71272380D01*
X26841476Y-71272380D01*
X26955761Y-71310476D01*
X27412904Y-71767619D01*
X27412904Y-71272380D01*
X27412904Y-70891428D02*
X27412904Y-70739047D01*
X27374809Y-70662857D01*
X27336714Y-70624761D01*
X27222428Y-70548571D01*
X27070047Y-70510476D01*
X26765285Y-70510476D01*
X26689095Y-70548571D01*
X26651000Y-70586666D01*
X26612904Y-70662857D01*
X26612904Y-70815238D01*
X26651000Y-70891428D01*
X26689095Y-70929523D01*
X26765285Y-70967619D01*
X26955761Y-70967619D01*
X27031952Y-70929523D01*
X27070047Y-70891428D01*
X27108142Y-70815238D01*
X27108142Y-70662857D01*
X27070047Y-70586666D01*
X27031952Y-70548571D01*
X26955761Y-70510476D01*
X26612904Y-74307619D02*
X26612904Y-73812380D01*
X26917666Y-74079047D01*
X26917666Y-73964761D01*
X26955761Y-73888571D01*
X26993857Y-73850476D01*
X27070047Y-73812380D01*
X27260523Y-73812380D01*
X27336714Y-73850476D01*
X27374809Y-73888571D01*
X27412904Y-73964761D01*
X27412904Y-74193333D01*
X27374809Y-74269523D01*
X27336714Y-74307619D01*
X26612904Y-73317142D02*
X26612904Y-73240952D01*
X26651000Y-73164761D01*
X26689095Y-73126666D01*
X26765285Y-73088571D01*
X26917666Y-73050476D01*
X27108142Y-73050476D01*
X27260523Y-73088571D01*
X27336714Y-73126666D01*
X27374809Y-73164761D01*
X27412904Y-73240952D01*
X27412904Y-73317142D01*
X27374809Y-73393333D01*
X27336714Y-73431428D01*
X27260523Y-73469523D01*
X27108142Y-73507619D01*
X26917666Y-73507619D01*
X26765285Y-73469523D01*
X26689095Y-73431428D01*
X26651000Y-73393333D01*
X26612904Y-73317142D01*
X26651000Y-26009523D02*
X26612904Y-26085714D01*
X26612904Y-26200000D01*
X26651000Y-26314285D01*
X26727190Y-26390476D01*
X26803380Y-26428571D01*
X26955761Y-26466666D01*
X27070047Y-26466666D01*
X27222428Y-26428571D01*
X27298619Y-26390476D01*
X27374809Y-26314285D01*
X27412904Y-26200000D01*
X27412904Y-26123809D01*
X27374809Y-26009523D01*
X27336714Y-25971428D01*
X27070047Y-25971428D01*
X27070047Y-26123809D01*
X27412904Y-25628571D02*
X26612904Y-25628571D01*
X27412904Y-25171428D01*
X26612904Y-25171428D01*
X27412904Y-24790476D02*
X26612904Y-24790476D01*
X26612904Y-24600000D01*
X26651000Y-24485714D01*
X26727190Y-24409523D01*
X26803380Y-24371428D01*
X26955761Y-24333333D01*
X27070047Y-24333333D01*
X27222428Y-24371428D01*
X27298619Y-24409523D01*
X27374809Y-24485714D01*
X27412904Y-24600000D01*
X27412904Y-24790476D01*
X41256000Y-26009523D02*
X41217904Y-26085714D01*
X41217904Y-26200000D01*
X41256000Y-26314285D01*
X41332190Y-26390476D01*
X41408380Y-26428571D01*
X41560761Y-26466666D01*
X41675047Y-26466666D01*
X41827428Y-26428571D01*
X41903619Y-26390476D01*
X41979809Y-26314285D01*
X42017904Y-26200000D01*
X42017904Y-26123809D01*
X41979809Y-26009523D01*
X41941714Y-25971428D01*
X41675047Y-25971428D01*
X41675047Y-26123809D01*
X42017904Y-25628571D02*
X41217904Y-25628571D01*
X42017904Y-25171428D01*
X41217904Y-25171428D01*
X42017904Y-24790476D02*
X41217904Y-24790476D01*
X41217904Y-24600000D01*
X41256000Y-24485714D01*
X41332190Y-24409523D01*
X41408380Y-24371428D01*
X41560761Y-24333333D01*
X41675047Y-24333333D01*
X41827428Y-24371428D01*
X41903619Y-24409523D01*
X41979809Y-24485714D01*
X42017904Y-24600000D01*
X42017904Y-24790476D01*
X41217904Y-28092380D02*
X41217904Y-28473333D01*
X41598857Y-28511428D01*
X41560761Y-28473333D01*
X41522666Y-28397142D01*
X41522666Y-28206666D01*
X41560761Y-28130476D01*
X41598857Y-28092380D01*
X41675047Y-28054285D01*
X41865523Y-28054285D01*
X41941714Y-28092380D01*
X41979809Y-28130476D01*
X42017904Y-28206666D01*
X42017904Y-28397142D01*
X41979809Y-28473333D01*
X41941714Y-28511428D01*
X41217904Y-27825714D02*
X42017904Y-27559047D01*
X41217904Y-27292380D01*
X41484571Y-38328571D02*
X42017904Y-38328571D01*
X41179809Y-38519047D02*
X41751238Y-38709523D01*
X41751238Y-38214285D01*
X41217904Y-37985714D02*
X41217904Y-37452380D01*
X42017904Y-37795238D01*
X41484571Y-40868571D02*
X42017904Y-40868571D01*
X41179809Y-41059047D02*
X41751238Y-41249523D01*
X41751238Y-40754285D01*
X41217904Y-40106666D02*
X41217904Y-40259047D01*
X41256000Y-40335238D01*
X41294095Y-40373333D01*
X41408380Y-40449523D01*
X41560761Y-40487619D01*
X41865523Y-40487619D01*
X41941714Y-40449523D01*
X41979809Y-40411428D01*
X42017904Y-40335238D01*
X42017904Y-40182857D01*
X41979809Y-40106666D01*
X41941714Y-40068571D01*
X41865523Y-40030476D01*
X41675047Y-40030476D01*
X41598857Y-40068571D01*
X41560761Y-40106666D01*
X41522666Y-40182857D01*
X41522666Y-40335238D01*
X41560761Y-40411428D01*
X41598857Y-40449523D01*
X41675047Y-40487619D01*
X41484571Y-43408571D02*
X42017904Y-43408571D01*
X41179809Y-43599047D02*
X41751238Y-43789523D01*
X41751238Y-43294285D01*
X41217904Y-42608571D02*
X41217904Y-42989523D01*
X41598857Y-43027619D01*
X41560761Y-42989523D01*
X41522666Y-42913333D01*
X41522666Y-42722857D01*
X41560761Y-42646666D01*
X41598857Y-42608571D01*
X41675047Y-42570476D01*
X41865523Y-42570476D01*
X41941714Y-42608571D01*
X41979809Y-42646666D01*
X42017904Y-42722857D01*
X42017904Y-42913333D01*
X41979809Y-42989523D01*
X41941714Y-43027619D01*
X41484571Y-45948571D02*
X42017904Y-45948571D01*
X41179809Y-46139047D02*
X41751238Y-46329523D01*
X41751238Y-45834285D01*
X41484571Y-45186666D02*
X42017904Y-45186666D01*
X41179809Y-45377142D02*
X41751238Y-45567619D01*
X41751238Y-45072380D01*
X41484571Y-48488571D02*
X42017904Y-48488571D01*
X41179809Y-48679047D02*
X41751238Y-48869523D01*
X41751238Y-48374285D01*
X41217904Y-48145714D02*
X41217904Y-47650476D01*
X41522666Y-47917142D01*
X41522666Y-47802857D01*
X41560761Y-47726666D01*
X41598857Y-47688571D01*
X41675047Y-47650476D01*
X41865523Y-47650476D01*
X41941714Y-47688571D01*
X41979809Y-47726666D01*
X42017904Y-47802857D01*
X42017904Y-48031428D01*
X41979809Y-48107619D01*
X41941714Y-48145714D01*
X41484571Y-51028571D02*
X42017904Y-51028571D01*
X41179809Y-51219047D02*
X41751238Y-51409523D01*
X41751238Y-50914285D01*
X41294095Y-50647619D02*
X41256000Y-50609523D01*
X41217904Y-50533333D01*
X41217904Y-50342857D01*
X41256000Y-50266666D01*
X41294095Y-50228571D01*
X41370285Y-50190476D01*
X41446476Y-50190476D01*
X41560761Y-50228571D01*
X42017904Y-50685714D01*
X42017904Y-50190476D01*
X41484571Y-53568571D02*
X42017904Y-53568571D01*
X41179809Y-53759047D02*
X41751238Y-53949523D01*
X41751238Y-53454285D01*
X42017904Y-52730476D02*
X42017904Y-53187619D01*
X42017904Y-52959047D02*
X41217904Y-52959047D01*
X41332190Y-53035238D01*
X41408380Y-53111428D01*
X41446476Y-53187619D01*
X41484571Y-56108571D02*
X42017904Y-56108571D01*
X41179809Y-56299047D02*
X41751238Y-56489523D01*
X41751238Y-55994285D01*
X41217904Y-55537142D02*
X41217904Y-55460952D01*
X41256000Y-55384761D01*
X41294095Y-55346666D01*
X41370285Y-55308571D01*
X41522666Y-55270476D01*
X41713142Y-55270476D01*
X41865523Y-55308571D01*
X41941714Y-55346666D01*
X41979809Y-55384761D01*
X42017904Y-55460952D01*
X42017904Y-55537142D01*
X41979809Y-55613333D01*
X41941714Y-55651428D01*
X41865523Y-55689523D01*
X41713142Y-55727619D01*
X41522666Y-55727619D01*
X41370285Y-55689523D01*
X41294095Y-55651428D01*
X41256000Y-55613333D01*
X41217904Y-55537142D01*
X41217904Y-59067619D02*
X41217904Y-58572380D01*
X41522666Y-58839047D01*
X41522666Y-58724761D01*
X41560761Y-58648571D01*
X41598857Y-58610476D01*
X41675047Y-58572380D01*
X41865523Y-58572380D01*
X41941714Y-58610476D01*
X41979809Y-58648571D01*
X42017904Y-58724761D01*
X42017904Y-58953333D01*
X41979809Y-59029523D01*
X41941714Y-59067619D01*
X42017904Y-58191428D02*
X42017904Y-58039047D01*
X41979809Y-57962857D01*
X41941714Y-57924761D01*
X41827428Y-57848571D01*
X41675047Y-57810476D01*
X41370285Y-57810476D01*
X41294095Y-57848571D01*
X41256000Y-57886666D01*
X41217904Y-57962857D01*
X41217904Y-58115238D01*
X41256000Y-58191428D01*
X41294095Y-58229523D01*
X41370285Y-58267619D01*
X41560761Y-58267619D01*
X41636952Y-58229523D01*
X41675047Y-58191428D01*
X41713142Y-58115238D01*
X41713142Y-57962857D01*
X41675047Y-57886666D01*
X41636952Y-57848571D01*
X41560761Y-57810476D01*
X41217904Y-61607619D02*
X41217904Y-61112380D01*
X41522666Y-61379047D01*
X41522666Y-61264761D01*
X41560761Y-61188571D01*
X41598857Y-61150476D01*
X41675047Y-61112380D01*
X41865523Y-61112380D01*
X41941714Y-61150476D01*
X41979809Y-61188571D01*
X42017904Y-61264761D01*
X42017904Y-61493333D01*
X41979809Y-61569523D01*
X41941714Y-61607619D01*
X41560761Y-60655238D02*
X41522666Y-60731428D01*
X41484571Y-60769523D01*
X41408380Y-60807619D01*
X41370285Y-60807619D01*
X41294095Y-60769523D01*
X41256000Y-60731428D01*
X41217904Y-60655238D01*
X41217904Y-60502857D01*
X41256000Y-60426666D01*
X41294095Y-60388571D01*
X41370285Y-60350476D01*
X41408380Y-60350476D01*
X41484571Y-60388571D01*
X41522666Y-60426666D01*
X41560761Y-60502857D01*
X41560761Y-60655238D01*
X41598857Y-60731428D01*
X41636952Y-60769523D01*
X41713142Y-60807619D01*
X41865523Y-60807619D01*
X41941714Y-60769523D01*
X41979809Y-60731428D01*
X42017904Y-60655238D01*
X42017904Y-60502857D01*
X41979809Y-60426666D01*
X41941714Y-60388571D01*
X41865523Y-60350476D01*
X41713142Y-60350476D01*
X41636952Y-60388571D01*
X41598857Y-60426666D01*
X41560761Y-60502857D01*
X41217904Y-64147619D02*
X41217904Y-63652380D01*
X41522666Y-63919047D01*
X41522666Y-63804761D01*
X41560761Y-63728571D01*
X41598857Y-63690476D01*
X41675047Y-63652380D01*
X41865523Y-63652380D01*
X41941714Y-63690476D01*
X41979809Y-63728571D01*
X42017904Y-63804761D01*
X42017904Y-64033333D01*
X41979809Y-64109523D01*
X41941714Y-64147619D01*
X41217904Y-62928571D02*
X41217904Y-63309523D01*
X41598857Y-63347619D01*
X41560761Y-63309523D01*
X41522666Y-63233333D01*
X41522666Y-63042857D01*
X41560761Y-62966666D01*
X41598857Y-62928571D01*
X41675047Y-62890476D01*
X41865523Y-62890476D01*
X41941714Y-62928571D01*
X41979809Y-62966666D01*
X42017904Y-63042857D01*
X42017904Y-63233333D01*
X41979809Y-63309523D01*
X41941714Y-63347619D01*
X41217904Y-66687619D02*
X41217904Y-66192380D01*
X41522666Y-66459047D01*
X41522666Y-66344761D01*
X41560761Y-66268571D01*
X41598857Y-66230476D01*
X41675047Y-66192380D01*
X41865523Y-66192380D01*
X41941714Y-66230476D01*
X41979809Y-66268571D01*
X42017904Y-66344761D01*
X42017904Y-66573333D01*
X41979809Y-66649523D01*
X41941714Y-66687619D01*
X41484571Y-65506666D02*
X42017904Y-65506666D01*
X41179809Y-65697142D02*
X41751238Y-65887619D01*
X41751238Y-65392380D01*
X41217904Y-69227619D02*
X41217904Y-68732380D01*
X41522666Y-68999047D01*
X41522666Y-68884761D01*
X41560761Y-68808571D01*
X41598857Y-68770476D01*
X41675047Y-68732380D01*
X41865523Y-68732380D01*
X41941714Y-68770476D01*
X41979809Y-68808571D01*
X42017904Y-68884761D01*
X42017904Y-69113333D01*
X41979809Y-69189523D01*
X41941714Y-69227619D01*
X41217904Y-68465714D02*
X41217904Y-67970476D01*
X41522666Y-68237142D01*
X41522666Y-68122857D01*
X41560761Y-68046666D01*
X41598857Y-68008571D01*
X41675047Y-67970476D01*
X41865523Y-67970476D01*
X41941714Y-68008571D01*
X41979809Y-68046666D01*
X42017904Y-68122857D01*
X42017904Y-68351428D01*
X41979809Y-68427619D01*
X41941714Y-68465714D01*
X41217904Y-71767619D02*
X41217904Y-71272380D01*
X41522666Y-71539047D01*
X41522666Y-71424761D01*
X41560761Y-71348571D01*
X41598857Y-71310476D01*
X41675047Y-71272380D01*
X41865523Y-71272380D01*
X41941714Y-71310476D01*
X41979809Y-71348571D01*
X42017904Y-71424761D01*
X42017904Y-71653333D01*
X41979809Y-71729523D01*
X41941714Y-71767619D01*
X41294095Y-70967619D02*
X41256000Y-70929523D01*
X41217904Y-70853333D01*
X41217904Y-70662857D01*
X41256000Y-70586666D01*
X41294095Y-70548571D01*
X41370285Y-70510476D01*
X41446476Y-70510476D01*
X41560761Y-70548571D01*
X42017904Y-71005714D01*
X42017904Y-70510476D01*
X41217904Y-74307619D02*
X41217904Y-73812380D01*
X41522666Y-74079047D01*
X41522666Y-73964761D01*
X41560761Y-73888571D01*
X41598857Y-73850476D01*
X41675047Y-73812380D01*
X41865523Y-73812380D01*
X41941714Y-73850476D01*
X41979809Y-73888571D01*
X42017904Y-73964761D01*
X42017904Y-74193333D01*
X41979809Y-74269523D01*
X41941714Y-74307619D01*
X42017904Y-73050476D02*
X42017904Y-73507619D01*
X42017904Y-73279047D02*
X41217904Y-73279047D01*
X41332190Y-73355238D01*
X41408380Y-73431428D01*
X41446476Y-73507619D01*
D11*
%TO.C,D3*%
X38679500Y-24512000D02*
X38679500Y-28397000D01*
X40949500Y-24512000D02*
X38679500Y-24512000D01*
X40949500Y-28397000D02*
X40949500Y-24512000D01*
%TO.C,SW1*%
X31245000Y-61721000D02*
X30945000Y-61721000D01*
X31245000Y-58421000D02*
X31245000Y-61721000D01*
X30945000Y-58421000D02*
X31245000Y-58421000D01*
X28445000Y-61721000D02*
X28745000Y-61721000D01*
X28445000Y-58421000D02*
X28445000Y-61721000D01*
X28745000Y-58421000D02*
X28445000Y-58421000D01*
%TO.C,R12*%
X37067258Y-40908500D02*
X36592742Y-40908500D01*
X37067258Y-39863500D02*
X36592742Y-39863500D01*
%TO.C,R11*%
X37067258Y-39448000D02*
X36592742Y-39448000D01*
X37067258Y-38403000D02*
X36592742Y-38403000D01*
%TO.C,U2*%
X37400000Y-57424000D02*
X37400000Y-57974000D01*
X37400000Y-57974000D02*
X36850000Y-57974000D01*
X31180000Y-52304000D02*
X31180000Y-51754000D01*
X31180000Y-51754000D02*
X31730000Y-51754000D01*
X31180000Y-57424000D02*
X31180000Y-57974000D01*
X31180000Y-57974000D02*
X31730000Y-57974000D01*
X37400000Y-52304000D02*
X37400000Y-51754000D01*
%TO.C,D2*%
X33490000Y-72650000D02*
X35090000Y-72650000D01*
X33940000Y-74550000D02*
X35090000Y-74550000D01*
%TO.C,D1*%
X30137200Y-47614800D02*
X31737200Y-47614800D01*
X30587200Y-49514800D02*
X31737200Y-49514800D01*
%TO.C,RN1*%
X33586000Y-44850000D02*
X33586000Y-44050000D01*
X37026000Y-44850000D02*
X37026000Y-44050000D01*
%TO.C,U5*%
X31645500Y-42746500D02*
X31645500Y-40296500D01*
X28425500Y-40946500D02*
X28425500Y-42746500D01*
%TO.C,U4*%
X30248500Y-33348500D02*
X30248500Y-30898500D01*
X27028500Y-31548500D02*
X27028500Y-33348500D01*
%TO.C,U3*%
X41361000Y-35190000D02*
X41361000Y-32740000D01*
X38141000Y-33390000D02*
X38141000Y-35190000D01*
%TO.C,U1*%
X30905000Y-34290000D02*
X30905000Y-37890000D01*
X30905000Y-34290000D02*
X30905000Y-32090000D01*
X37675000Y-34290000D02*
X37675000Y-36490000D01*
X37675000Y-34290000D02*
X37675000Y-32090000D01*
%TO.C,R10*%
X30272758Y-45451500D02*
X29798242Y-45451500D01*
X30272758Y-46496500D02*
X29798242Y-46496500D01*
%TO.C,R9*%
X29798242Y-45036000D02*
X30272758Y-45036000D01*
X29798242Y-43991000D02*
X30272758Y-43991000D01*
%TO.C,R8*%
X36019000Y-71230258D02*
X36019000Y-70755742D01*
X34974000Y-71230258D02*
X34974000Y-70755742D01*
%TO.C,R7*%
X33606000Y-71230258D02*
X33606000Y-70755742D01*
X32561000Y-71230258D02*
X32561000Y-70755742D01*
%TO.C,R6*%
X34812500Y-71230258D02*
X34812500Y-70755742D01*
X33767500Y-71230258D02*
X33767500Y-70755742D01*
%TO.C,R5*%
X30598342Y-50865300D02*
X31072858Y-50865300D01*
X30598342Y-49820300D02*
X31072858Y-49820300D01*
%TO.C,R4*%
X37425100Y-49292742D02*
X37425100Y-49767258D01*
X38470100Y-49292742D02*
X38470100Y-49767258D01*
%TO.C,R3*%
X36275242Y-47258500D02*
X36749758Y-47258500D01*
X36275242Y-46213500D02*
X36749758Y-46213500D01*
%TO.C,R2*%
X29764758Y-36625000D02*
X29290242Y-36625000D01*
X29764758Y-37670000D02*
X29290242Y-37670000D01*
%TO.C,R1*%
X38898300Y-49292742D02*
X38898300Y-49767258D01*
X39943300Y-49292742D02*
X39943300Y-49767258D01*
%TO.C,J1*%
X35990000Y-28982500D02*
X35990000Y-28532500D01*
X35990000Y-28982500D02*
X35540000Y-28982500D01*
X30390000Y-28432500D02*
X30840000Y-28432500D01*
X30390000Y-26582500D02*
X30390000Y-28432500D01*
X38190000Y-24032500D02*
X38190000Y-24282500D01*
X30390000Y-24032500D02*
X30390000Y-24282500D01*
X38190000Y-26582500D02*
X38190000Y-28432500D01*
X38190000Y-28432500D02*
X37740000Y-28432500D01*
%TO.C,C10*%
X28969580Y-34605500D02*
X28688420Y-34605500D01*
X28969580Y-35625500D02*
X28688420Y-35625500D01*
%TO.C,C9*%
X28969580Y-29271500D02*
X28688420Y-29271500D01*
X28969580Y-30291500D02*
X28688420Y-30291500D01*
%TO.C,C8*%
X30353580Y-38669500D02*
X30072420Y-38669500D01*
X30353580Y-39689500D02*
X30072420Y-39689500D01*
%TO.C,C6*%
X40018580Y-36447000D02*
X39737420Y-36447000D01*
X40018580Y-37467000D02*
X39737420Y-37467000D01*
%TO.C,C5*%
X40082080Y-31113000D02*
X39800920Y-31113000D01*
X40082080Y-32133000D02*
X39800920Y-32133000D01*
%TD*%
M02*
