%TF.GenerationSoftware,KiCad,Pcbnew,5.1.9*%
%TF.CreationDate,2021-02-13T19:17:24+03:00*%
%TF.ProjectId,gw1ns2c-board,6777316e-7332-4632-9d62-6f6172642e6b,rev?*%
%TF.SameCoordinates,Original*%
%TF.FileFunction,Legend,Bot*%
%TF.FilePolarity,Positive*%
%FSLAX46Y46*%
G04 Gerber Fmt 4.6, Leading zero omitted, Abs format (unit mm)*
G04 Created by KiCad (PCBNEW 5.1.9) date 2021-02-13 19:17:24*
%MOMM*%
%LPD*%
G01*
G04 APERTURE LIST*
%ADD10C,0.150000*%
%ADD11C,0.120000*%
G04 APERTURE END LIST*
D10*
X29317904Y-64256238D02*
X28517904Y-64256238D01*
X29317904Y-64599095D02*
X28898857Y-64599095D01*
X28822666Y-64561000D01*
X28784571Y-64484809D01*
X28784571Y-64370523D01*
X28822666Y-64294333D01*
X28860761Y-64256238D01*
X29317904Y-65094333D02*
X29279809Y-65018142D01*
X29241714Y-64980047D01*
X29165523Y-64941952D01*
X28936952Y-64941952D01*
X28860761Y-64980047D01*
X28822666Y-65018142D01*
X28784571Y-65094333D01*
X28784571Y-65208619D01*
X28822666Y-65284809D01*
X28860761Y-65322904D01*
X28936952Y-65361000D01*
X29165523Y-65361000D01*
X29241714Y-65322904D01*
X29279809Y-65284809D01*
X29317904Y-65208619D01*
X29317904Y-65094333D01*
X28784571Y-65703857D02*
X29317904Y-65703857D01*
X28860761Y-65703857D02*
X28822666Y-65741952D01*
X28784571Y-65818142D01*
X28784571Y-65932428D01*
X28822666Y-66008619D01*
X28898857Y-66046714D01*
X29317904Y-66046714D01*
X29279809Y-66732428D02*
X29317904Y-66656238D01*
X29317904Y-66503857D01*
X29279809Y-66427666D01*
X29203619Y-66389571D01*
X28898857Y-66389571D01*
X28822666Y-66427666D01*
X28784571Y-66503857D01*
X28784571Y-66656238D01*
X28822666Y-66732428D01*
X28898857Y-66770523D01*
X28975047Y-66770523D01*
X29051238Y-66389571D01*
X28784571Y-67037190D02*
X29317904Y-67227666D01*
X28784571Y-67418142D02*
X29317904Y-67227666D01*
X29508380Y-67151476D01*
X29546476Y-67113380D01*
X29584571Y-67037190D01*
X29279809Y-68065761D02*
X29317904Y-67989571D01*
X29317904Y-67837190D01*
X29279809Y-67761000D01*
X29241714Y-67722904D01*
X29165523Y-67684809D01*
X28936952Y-67684809D01*
X28860761Y-67722904D01*
X28822666Y-67761000D01*
X28784571Y-67837190D01*
X28784571Y-67989571D01*
X28822666Y-68065761D01*
X29317904Y-68522904D02*
X29279809Y-68446714D01*
X29241714Y-68408619D01*
X29165523Y-68370523D01*
X28936952Y-68370523D01*
X28860761Y-68408619D01*
X28822666Y-68446714D01*
X28784571Y-68522904D01*
X28784571Y-68637190D01*
X28822666Y-68713380D01*
X28860761Y-68751476D01*
X28936952Y-68789571D01*
X29165523Y-68789571D01*
X29241714Y-68751476D01*
X29279809Y-68713380D01*
X29317904Y-68637190D01*
X29317904Y-68522904D01*
X29317904Y-69132428D02*
X28784571Y-69132428D01*
X28860761Y-69132428D02*
X28822666Y-69170523D01*
X28784571Y-69246714D01*
X28784571Y-69361000D01*
X28822666Y-69437190D01*
X28898857Y-69475285D01*
X29317904Y-69475285D01*
X28898857Y-69475285D02*
X28822666Y-69513380D01*
X28784571Y-69589571D01*
X28784571Y-69703857D01*
X28822666Y-69780047D01*
X28898857Y-69818142D01*
X29317904Y-69818142D01*
X29317904Y-70199095D02*
X28517904Y-70199095D01*
X28822666Y-70199095D02*
X28784571Y-70275285D01*
X28784571Y-70427666D01*
X28822666Y-70503857D01*
X28860761Y-70541952D01*
X28936952Y-70580047D01*
X29165523Y-70580047D01*
X29241714Y-70541952D01*
X29279809Y-70503857D01*
X29317904Y-70427666D01*
X29317904Y-70275285D01*
X29279809Y-70199095D01*
X28784571Y-71456238D02*
X29317904Y-71646714D01*
X28784571Y-71837190D01*
X29317904Y-72561000D02*
X29317904Y-72103857D01*
X29317904Y-72332428D02*
X28517904Y-72332428D01*
X28632190Y-72256238D01*
X28708380Y-72180047D01*
X28746476Y-72103857D01*
X29241714Y-72903857D02*
X29279809Y-72941952D01*
X29317904Y-72903857D01*
X29279809Y-72865761D01*
X29241714Y-72903857D01*
X29317904Y-72903857D01*
X28517904Y-73437190D02*
X28517904Y-73513380D01*
X28556000Y-73589571D01*
X28594095Y-73627666D01*
X28670285Y-73665761D01*
X28822666Y-73703857D01*
X29013142Y-73703857D01*
X29165523Y-73665761D01*
X29241714Y-73627666D01*
X29279809Y-73589571D01*
X29317904Y-73513380D01*
X29317904Y-73437190D01*
X29279809Y-73361000D01*
X29241714Y-73322904D01*
X29165523Y-73284809D01*
X29013142Y-73246714D01*
X28822666Y-73246714D01*
X28670285Y-73284809D01*
X28594095Y-73322904D01*
X28556000Y-73361000D01*
X28517904Y-73437190D01*
X40836904Y-27787619D02*
X40836904Y-27406666D01*
X41217857Y-27368571D01*
X41179761Y-27406666D01*
X41141666Y-27482857D01*
X41141666Y-27673333D01*
X41179761Y-27749523D01*
X41217857Y-27787619D01*
X41294047Y-27825714D01*
X41484523Y-27825714D01*
X41560714Y-27787619D01*
X41598809Y-27749523D01*
X41636904Y-27673333D01*
X41636904Y-27482857D01*
X41598809Y-27406666D01*
X41560714Y-27368571D01*
X40836904Y-28054285D02*
X41636904Y-28320952D01*
X40836904Y-28587619D01*
X40875000Y-24790476D02*
X40836904Y-24714285D01*
X40836904Y-24600000D01*
X40875000Y-24485714D01*
X40951190Y-24409523D01*
X41027380Y-24371428D01*
X41179761Y-24333333D01*
X41294047Y-24333333D01*
X41446428Y-24371428D01*
X41522619Y-24409523D01*
X41598809Y-24485714D01*
X41636904Y-24600000D01*
X41636904Y-24676190D01*
X41598809Y-24790476D01*
X41560714Y-24828571D01*
X41294047Y-24828571D01*
X41294047Y-24676190D01*
X41636904Y-25171428D02*
X40836904Y-25171428D01*
X41636904Y-25628571D01*
X40836904Y-25628571D01*
X41636904Y-26009523D02*
X40836904Y-26009523D01*
X40836904Y-26200000D01*
X40875000Y-26314285D01*
X40951190Y-26390476D01*
X41027380Y-26428571D01*
X41179761Y-26466666D01*
X41294047Y-26466666D01*
X41446428Y-26428571D01*
X41522619Y-26390476D01*
X41598809Y-26314285D01*
X41636904Y-26200000D01*
X41636904Y-26009523D01*
X26968500Y-24790476D02*
X26930404Y-24714285D01*
X26930404Y-24600000D01*
X26968500Y-24485714D01*
X27044690Y-24409523D01*
X27120880Y-24371428D01*
X27273261Y-24333333D01*
X27387547Y-24333333D01*
X27539928Y-24371428D01*
X27616119Y-24409523D01*
X27692309Y-24485714D01*
X27730404Y-24600000D01*
X27730404Y-24676190D01*
X27692309Y-24790476D01*
X27654214Y-24828571D01*
X27387547Y-24828571D01*
X27387547Y-24676190D01*
X27730404Y-25171428D02*
X26930404Y-25171428D01*
X27730404Y-25628571D01*
X26930404Y-25628571D01*
X27730404Y-26009523D02*
X26930404Y-26009523D01*
X26930404Y-26200000D01*
X26968500Y-26314285D01*
X27044690Y-26390476D01*
X27120880Y-26428571D01*
X27273261Y-26466666D01*
X27387547Y-26466666D01*
X27539928Y-26428571D01*
X27616119Y-26390476D01*
X27692309Y-26314285D01*
X27730404Y-26200000D01*
X27730404Y-26009523D01*
X26930404Y-34569523D02*
X26930404Y-35064761D01*
X27235166Y-34798095D01*
X27235166Y-34912380D01*
X27273261Y-34988571D01*
X27311357Y-35026666D01*
X27387547Y-35064761D01*
X27578023Y-35064761D01*
X27654214Y-35026666D01*
X27692309Y-34988571D01*
X27730404Y-34912380D01*
X27730404Y-34683809D01*
X27692309Y-34607619D01*
X27654214Y-34569523D01*
X26930404Y-35293333D02*
X27730404Y-35560000D01*
X26930404Y-35826666D01*
X26930404Y-36017142D02*
X26930404Y-36512380D01*
X27235166Y-36245714D01*
X27235166Y-36360000D01*
X27273261Y-36436190D01*
X27311357Y-36474285D01*
X27387547Y-36512380D01*
X27578023Y-36512380D01*
X27654214Y-36474285D01*
X27692309Y-36436190D01*
X27730404Y-36360000D01*
X27730404Y-36131428D01*
X27692309Y-36055238D01*
X27654214Y-36017142D01*
X27730404Y-32588261D02*
X27730404Y-32131119D01*
X27730404Y-32359690D02*
X26930404Y-32359690D01*
X27044690Y-32283500D01*
X27120880Y-32207309D01*
X27158976Y-32131119D01*
X26930404Y-32816833D02*
X27730404Y-33083500D01*
X26930404Y-33350166D01*
X27273261Y-33731119D02*
X27235166Y-33654928D01*
X27197071Y-33616833D01*
X27120880Y-33578738D01*
X27082785Y-33578738D01*
X27006595Y-33616833D01*
X26968500Y-33654928D01*
X26930404Y-33731119D01*
X26930404Y-33883500D01*
X26968500Y-33959690D01*
X27006595Y-33997785D01*
X27082785Y-34035880D01*
X27120880Y-34035880D01*
X27197071Y-33997785D01*
X27235166Y-33959690D01*
X27273261Y-33883500D01*
X27273261Y-33731119D01*
X27311357Y-33654928D01*
X27349452Y-33616833D01*
X27425642Y-33578738D01*
X27578023Y-33578738D01*
X27654214Y-33616833D01*
X27692309Y-33654928D01*
X27730404Y-33731119D01*
X27730404Y-33883500D01*
X27692309Y-33959690D01*
X27654214Y-33997785D01*
X27578023Y-34035880D01*
X27425642Y-34035880D01*
X27349452Y-33997785D01*
X27311357Y-33959690D01*
X27273261Y-33883500D01*
X32873904Y-37280904D02*
X32492952Y-37014238D01*
X32873904Y-36823761D02*
X32073904Y-36823761D01*
X32073904Y-37128523D01*
X32112000Y-37204714D01*
X32150095Y-37242809D01*
X32226285Y-37280904D01*
X32340571Y-37280904D01*
X32416761Y-37242809D01*
X32454857Y-37204714D01*
X32492952Y-37128523D01*
X32492952Y-36823761D01*
X32835809Y-37585666D02*
X32873904Y-37699952D01*
X32873904Y-37890428D01*
X32835809Y-37966619D01*
X32797714Y-38004714D01*
X32721523Y-38042809D01*
X32645333Y-38042809D01*
X32569142Y-38004714D01*
X32531047Y-37966619D01*
X32492952Y-37890428D01*
X32454857Y-37738047D01*
X32416761Y-37661857D01*
X32378666Y-37623761D01*
X32302476Y-37585666D01*
X32226285Y-37585666D01*
X32150095Y-37623761D01*
X32112000Y-37661857D01*
X32073904Y-37738047D01*
X32073904Y-37928523D01*
X32112000Y-38042809D01*
X32073904Y-38271380D02*
X32073904Y-38728523D01*
X32873904Y-38499952D02*
X32073904Y-38499952D01*
X41636904Y-35064761D02*
X41636904Y-34607619D01*
X41636904Y-34836190D02*
X40836904Y-34836190D01*
X40951190Y-34760000D01*
X41027380Y-34683809D01*
X41065476Y-34607619D01*
X40836904Y-35293333D02*
X41636904Y-35560000D01*
X40836904Y-35826666D01*
X40913095Y-36055238D02*
X40875000Y-36093333D01*
X40836904Y-36169523D01*
X40836904Y-36360000D01*
X40875000Y-36436190D01*
X40913095Y-36474285D01*
X40989285Y-36512380D01*
X41065476Y-36512380D01*
X41179761Y-36474285D01*
X41636904Y-36017142D01*
X41636904Y-36512380D01*
D11*
%TO.C,R13*%
X36084742Y-30592500D02*
X36559258Y-30592500D01*
X36084742Y-31637500D02*
X36559258Y-31637500D01*
%TO.C,C12*%
X30732000Y-56401580D02*
X30732000Y-56120420D01*
X31752000Y-56401580D02*
X31752000Y-56120420D01*
%TO.C,C11*%
X37351580Y-52707000D02*
X37070420Y-52707000D01*
X37351580Y-51687000D02*
X37070420Y-51687000D01*
%TO.C,TP1*%
X33212000Y-35864800D02*
G75*
G03*
X33212000Y-35864800I-700000J0D01*
G01*
%TO.C,J3*%
X44510000Y-24070000D02*
X43180000Y-24070000D01*
X44510000Y-25400000D02*
X44510000Y-24070000D01*
X44510000Y-26670000D02*
X41850000Y-26670000D01*
X41850000Y-26670000D02*
X41850000Y-74990000D01*
X44510000Y-26670000D02*
X44510000Y-74990000D01*
X44510000Y-74990000D02*
X41850000Y-74990000D01*
%TO.C,J2*%
X26730000Y-24070000D02*
X25400000Y-24070000D01*
X26730000Y-25400000D02*
X26730000Y-24070000D01*
X26730000Y-26670000D02*
X24070000Y-26670000D01*
X24070000Y-26670000D02*
X24070000Y-74990000D01*
X26730000Y-26670000D02*
X26730000Y-74990000D01*
X26730000Y-74990000D02*
X24070000Y-74990000D01*
%TO.C,C7*%
X30341180Y-43436000D02*
X30060020Y-43436000D01*
X30341180Y-42416000D02*
X30060020Y-42416000D01*
%TO.C,C4*%
X35659600Y-57036580D02*
X35659600Y-56755420D01*
X36679600Y-57036580D02*
X36679600Y-56755420D01*
%TO.C,C3*%
X31788980Y-49278000D02*
X31507820Y-49278000D01*
X31788980Y-48258000D02*
X31507820Y-48258000D01*
%TO.C,C2*%
X38392980Y-57101200D02*
X38111820Y-57101200D01*
X38392980Y-56081200D02*
X38111820Y-56081200D01*
%TO.C,C1*%
X30823780Y-53291200D02*
X30542620Y-53291200D01*
X30823780Y-52271200D02*
X30542620Y-52271200D01*
%TD*%
M02*
